<svg xmlns="http://www.w3.org/2000/svg" viewBox="0 0 55 65"><path d="M 55.015 22 C 55.015 22 55.015 22 55.015 22 C 55.015 21.8 54.915 21.6 54.815 21.4 C 54.815 21.4 54.815 21.3 54.715 21.3 C 54.615 21.1 54.515 20.9 54.315 20.8 L 34.315 0.8 C 34.115 0.6 34.015 0.5 33.815 0.4 C 33.815 0.4 33.715 0.3 33.715 0.3 C 33.415 0.2 33.215 0.1 33.015 0 C 33.015 0 33.015 0 33.015 0 C 32.815 0 32.715 0 32.515 0 L 7.515 0 C 3.415 0 0.015 3.4 0.015 7.5 L 0.015 57.5 C 0.015 61.6 3.415 65 7.515 65 L 47.515 65 C 51.615 65 55.015 61.6 55.015 57.5 L 55.015 22.5 C 55.015 22.3 55.015 22.2 55.015 22 Z M 46.515 20 L 37.515 20 C 36.115 20 35.015 18.9 35.015 17.5 L 35.015 8.5 L 40.715 14.2 L 46.515 20 Z M 24.015 51 L 24.015 44 L 31.015 44 L 31.015 51 L 24.015 51 Z M 14.015 51 L 14.015 44 L 21.015 44 L 21.015 51 L 14.015 51 Z M 41.015 41 L 34.015 41 L 34.015 34 L 41.015 34 L 41.015 41 Z M 31.015 41 L 24.015 41 L 24.015 34 L 31.015 34 L 31.015 41 Z M 14.015 34 L 21.015 34 L 21.015 41 L 14.015 41 L 14.015 34 Z M 24.015 31 L 24.015 23 L 31.015 23 L 31.015 31 L 24.015 31 Z M 14.015 23 L 21.015 23 L 21.015 31 L 14.015 31 L 14.015 23 Z M 34.015 44 L 41.015 44 L 41.015 51 L 34.015 51 L 34.015 44 Z M 41.015 31 L 34.015 31 L 34.015 24.1 C 35.015 24.7 36.215 25 37.515 25 L 41.015 25 L 41.015 31 Z M 47.515 60 L 7.515 60 C 6.115 60 5.015 58.9 5.015 57.5 L 5.015 7.5 C 5.015 6.1 6.115 5 7.515 5 L 30.015 5 L 30.015 11 L 12.515 11 C 11.715 11 11.015 11.7 11.015 12.5 L 11.015 52.5 C 11.015 53.3 11.715 54 12.515 54 L 42.515 54 C 43.315 54 44.015 53.3 44.015 52.5 L 44.015 25 L 50.015 25 L 50.015 57.5 C 50.015 58.9 48.915 60 47.515 60 Z"></path></svg>